<svg width="23" height="23" viewBox="0 0 23 23" fill="none" xmlns="http://www.w3.org/2000/svg">
<path d="M17.1589 6.30884H17.1689M6.65894 1.80884H16.6589C19.4204 1.80884 21.6589 4.04741 21.6589 6.80884V16.8088C21.6589 19.5703 19.4204 21.8088 16.6589 21.8088H6.65894C3.89751 21.8088 1.65894 19.5703 1.65894 16.8088V6.80884C1.65894 4.04741 3.89751 1.80884 6.65894 1.80884ZM15.6589 11.1788C15.7823 12.0111 15.6402 12.8611 15.2527 13.6079C14.8652 14.3547 14.2521 14.9603 13.5006 15.3385C12.749 15.7168 11.8974 15.8484 11.0667 15.7148C10.2361 15.5811 9.4687 15.1889 8.87377 14.594C8.27885 13.9991 7.88667 13.2317 7.753 12.4011C7.61934 11.5704 7.751 10.7187 8.12926 9.96721C8.50752 9.21569 9.11312 8.60258 9.85992 8.21508C10.6067 7.82758 11.4567 7.68543 12.2889 7.80884C13.1379 7.93472 13.9238 8.3303 14.5306 8.93714C15.1375 9.54399 15.5331 10.3299 15.6589 11.1788Z" stroke="white" stroke-width="2" stroke-linecap="round" stroke-linejoin="round"/>
</svg>
