<svg width="271" height="217" viewBox="0 0 271 217" fill="none" xmlns="http://www.w3.org/2000/svg">
<path d="M121.208 178.851C133.861 178.851 144.118 176.583 144.118 173.786C144.118 170.989 133.861 168.722 121.208 168.722C108.555 168.722 98.2971 170.989 98.2971 173.786C98.2971 176.583 108.555 178.851 121.208 178.851Z" fill="black"/>
<path d="M121.207 173.786L108.338 214.064" stroke="black" stroke-width="4" stroke-miterlimit="10" stroke-linecap="round"/>
<path d="M121.208 173.786L134.077 214.064" stroke="black" stroke-width="4" stroke-miterlimit="10" stroke-linecap="round"/>
<path d="M112.564 200.839L126.911 191.64" stroke="black" stroke-width="2" stroke-miterlimit="10" stroke-linecap="round"/>
<path d="M115.446 191.64L129.797 200.839" stroke="black" stroke-width="2" stroke-miterlimit="10" stroke-linecap="round"/>
<path d="M143.755 130.187C143.697 131.973 143.723 138.228 143.428 140.903" stroke="#1F161E" stroke-miterlimit="10" stroke-linecap="round"/>
<path d="M70.05 51.0832C70.05 49.8141 69.0212 48.7853 67.7521 48.7853C66.4829 48.7853 65.4541 49.8141 65.4541 51.0832V59.0154C65.4541 60.2845 66.4829 61.3133 67.7521 61.3133C69.0212 61.3133 70.05 60.2845 70.05 59.0154V51.0832Z" fill="black"/>
<path d="M67.7518 74.6473C70.2981 74.6473 72.3623 72.5831 72.3623 70.0368C72.3623 67.4906 70.2981 65.4264 67.7518 65.4264C65.2055 65.4264 63.1414 67.4906 63.1414 70.0368C63.1414 72.5831 65.2055 74.6473 67.7518 74.6473Z" fill="#FBDC8E"/>
<path d="M221.886 124.792H224.064C224.293 124.791 224.512 124.7 224.674 124.538C224.836 124.376 224.927 124.157 224.928 123.928V110.54C224.929 110.426 224.906 110.314 224.863 110.209C224.819 110.105 224.755 110.01 224.674 109.93L221.922 107.178C221.842 107.098 221.747 107.034 221.643 106.99C221.538 106.947 221.426 106.924 221.312 106.924H213.184C212.955 106.925 212.736 107.016 212.574 107.178C212.413 107.34 212.321 107.559 212.32 107.788V109.08" fill="#FBDC8E"/>
<path d="M32.6359 156.739C39.5334 158.046 38.3028 199.213 25.0632 196.722C12.5605 194.348 24.2209 155.138 32.6359 156.739Z" fill="black"/>
<path d="M2.35247 161.821C7.84144 158.713 30.8174 187.625 20.3078 193.571C10.379 199.213 -4.33086 165.611 2.35247 161.821Z" fill="#FBDC8E"/>
<path d="M30.3234 216.609H16.463C15.9047 216.609 15.3661 216.403 14.9502 216.031C14.5343 215.658 14.2702 215.145 14.2086 214.591L12.4588 198.879C12.4209 198.56 12.4509 198.237 12.5468 197.931C12.6427 197.625 12.8024 197.342 13.0154 197.102C13.2284 196.862 13.4898 196.67 13.7824 196.538C14.0751 196.406 14.3923 196.338 14.7132 196.338H32.0006C32.3189 196.338 32.6337 196.405 32.9243 196.535C33.215 196.665 33.4751 196.854 33.6878 197.091C33.9004 197.328 34.0608 197.607 34.1585 197.91C34.2562 198.213 34.2891 198.533 34.255 198.85L32.5814 214.562C32.5256 215.122 32.2637 215.642 31.8465 216.02C31.4293 216.398 30.8865 216.608 30.3234 216.609Z" fill="#969696"/>
<path d="M36.5319 140.707C41.7849 142.232 37.7589 174.008 27.6994 171.082C18.2027 168.323 30.139 138.849 36.5319 140.707Z" fill="#AB8DE5"/>
<path d="M45.1935 165.989C48.8237 169.118 34.0558 193.056 27.0784 187.044C20.4895 181.392 40.7609 162.184 45.1935 165.989Z" fill="#FBDC8E"/>
<path d="M23.4302 144.011C31.2933 144.011 38.4921 194.218 23.4302 194.218C9.20675 194.218 13.8571 144.011 23.4302 144.011Z" fill="#78E5E1"/>
<path d="M37.2284 192.94H9.56572C8.75372 192.94 8.09546 193.598 8.09546 194.41V197.089C8.09546 197.901 8.75372 198.559 9.56572 198.559H37.2284C38.0404 198.559 38.6986 197.901 38.6986 197.089V194.41C38.6986 193.598 38.0404 192.94 37.2284 192.94Z" fill="#D8D8D8"/>
<path d="M218.226 109.08H210.24C210.112 109.08 209.985 109.106 209.867 109.155C209.748 109.204 209.641 109.276 209.551 109.367C209.46 109.457 209.389 109.565 209.34 109.684C209.291 109.802 209.266 109.929 209.267 110.057V125.958C209.267 126.216 209.369 126.464 209.552 126.647C209.734 126.83 209.981 126.933 210.24 126.934H220.909C221.168 126.933 221.415 126.83 221.597 126.647C221.78 126.464 221.882 126.216 221.882 125.958V112.743C221.883 112.615 221.858 112.489 221.809 112.37C221.761 112.252 221.689 112.144 221.599 112.054L218.912 109.367C218.731 109.185 218.484 109.081 218.226 109.08Z" fill="#D8D8D8"/>
<path d="M221.886 112.362H219.174C219.03 112.362 218.891 112.305 218.789 112.203C218.687 112.101 218.63 111.962 218.63 111.818V109.08" fill="#969696"/>
<path d="M224.939 110.209H222.227C222.082 110.209 221.943 110.15 221.841 110.048C221.738 109.945 221.68 109.806 221.679 109.661V106.924" fill="#64CCC4"/>
<path d="M209.278 90.9037H190.56C189.953 90.9037 189.46 91.3962 189.46 92.0037V98.117C189.46 98.7245 189.953 99.217 190.56 99.217H209.278C209.885 99.217 210.378 98.7245 210.378 98.117V92.0037C210.378 91.3962 209.885 90.9037 209.278 90.9037Z" fill="#78E5E1"/>
<path d="M199.916 104.917L202.435 97.2857H197.396L199.916 104.917Z" fill="#78E5E1"/>
<path d="M194.924 93.1181L192.811 96.7738H197.033L194.924 93.1181Z" fill="white"/>
<path d="M204.911 96.7738L207.023 93.1181H202.798L204.911 96.7738Z" fill="white"/>
<path d="M199.916 96.5342C200.792 96.5342 201.502 95.8239 201.502 94.9478C201.502 94.0716 200.792 93.3613 199.916 93.3613C199.039 93.3613 198.329 94.0716 198.329 94.9478C198.329 95.8239 199.039 96.5342 199.916 96.5342Z" fill="white"/>
<path d="M198.286 73.286H186.001C185.47 73.286 185.039 73.7167 185.039 74.248V81.6755C185.039 82.2068 185.47 82.6376 186.001 82.6376H198.286C198.817 82.6376 199.248 82.2068 199.248 81.6755V74.248C199.248 73.7167 198.817 73.286 198.286 73.286Z" fill="#D8D8D8"/>
<path d="M185.485 73.58L192.143 77.9617" stroke="#969696" stroke-width="0.82" stroke-linecap="round" stroke-linejoin="round"/>
<path d="M199.248 73.286L192.143 77.9618" stroke="#969696" stroke-width="0.82" stroke-linecap="round" stroke-linejoin="round"/>
<path d="M199.248 75.3189C200.371 75.3189 201.281 74.4087 201.281 73.2859C201.281 72.1632 200.371 71.253 199.248 71.253C198.125 71.253 197.215 72.1632 197.215 73.2859C197.215 74.4087 198.125 75.3189 199.248 75.3189Z" fill="#FBDC8E"/>
<path d="M201.258 78.4199H200.595V74.025L199.266 74.5133V73.9145L201.155 73.2051H201.258V78.4199Z" fill="white"/>
<path d="M270.553 78.9891H217.551C217.305 78.9891 217.105 79.189 217.105 79.4357V79.7116C217.105 79.9582 217.305 80.1581 217.551 80.1581H270.553C270.8 80.1581 271 79.9582 271 79.7116V79.4357C271 79.189 270.8 78.9891 270.553 78.9891Z" fill="#D8D8D8"/>
<path d="M239.939 55.7772H236.719C236.206 55.7772 235.79 56.1932 235.79 56.7065V78.0598C235.79 78.573 236.206 78.9891 236.719 78.9891H239.939C240.453 78.9891 240.869 78.573 240.869 78.0598V56.7065C240.869 56.1932 240.453 55.7772 239.939 55.7772Z" fill="#969696"/>
<path d="M242.636 61.2189H241.642C241.215 61.2189 240.868 61.5651 240.868 61.9921V78.2158C240.868 78.6429 241.215 78.9891 241.642 78.9891H242.636C243.063 78.9891 243.41 78.6429 243.41 78.2158V61.9921C243.41 61.5651 243.063 61.2189 242.636 61.2189Z" fill="#D8D8D8"/>
<path d="M245.203 61.2189H244.158C243.745 61.2189 243.41 61.5537 243.41 61.9667V78.2412C243.41 78.6543 243.745 78.9891 244.158 78.9891H245.203C245.616 78.9891 245.951 78.6543 245.951 78.2412V61.9667C245.951 61.5537 245.616 61.2189 245.203 61.2189Z" fill="#969696"/>
<path d="M247.046 62.4908L246.188 62.8846C245.787 63.0687 245.611 63.5428 245.795 63.9437L252.543 78.6415C252.727 79.0424 253.201 79.2182 253.602 79.0341L254.46 78.6403C254.861 78.4563 255.037 77.9821 254.853 77.5813L248.105 62.8834C247.921 62.4825 247.447 62.3068 247.046 62.4908Z" fill="#D8D8D8"/>
<path d="M238.327 73.1154C239.111 73.1154 239.747 72.4799 239.747 71.6959C239.747 70.912 239.111 70.2765 238.327 70.2765C237.543 70.2765 236.908 70.912 236.908 71.6959C236.908 72.4799 237.543 73.1154 238.327 73.1154Z" fill="#D8D8D8"/>
<path d="M239.612 73.9648H237.042C236.854 73.9648 236.701 74.1176 236.701 74.3061C236.701 74.4945 236.854 74.6473 237.042 74.6473H239.612C239.801 74.6473 239.954 74.4945 239.954 74.3061C239.954 74.1176 239.801 73.9648 239.612 73.9648Z" fill="#D8D8D8"/>
<path d="M239.612 75.711H237.042C236.854 75.711 236.701 75.8638 236.701 76.0522C236.701 76.2407 236.854 76.3935 237.042 76.3935H239.612C239.801 76.3935 239.954 76.2407 239.954 76.0522C239.954 75.8638 239.801 75.711 239.612 75.711Z" fill="#D8D8D8"/>
<path d="M213.606 110.721H211.035C210.847 110.721 210.694 110.874 210.694 111.063C210.694 111.251 210.847 111.404 211.035 111.404H213.606C213.794 111.404 213.947 111.251 213.947 111.063C213.947 110.874 213.794 110.721 213.606 110.721Z" fill="#969696"/>
<path d="M213.606 112.362H211.035C210.847 112.362 210.694 112.515 210.694 112.703C210.694 112.892 210.847 113.045 211.035 113.045H213.606C213.794 113.045 213.947 112.892 213.947 112.703C213.947 112.515 213.794 112.362 213.606 112.362Z" fill="#969696"/>
<path d="M220.27 115.168H210.886C210.698 115.168 210.545 115.321 210.545 115.51C210.545 115.698 210.698 115.851 210.886 115.851H220.27C220.459 115.851 220.612 115.698 220.612 115.51C220.612 115.321 220.459 115.168 220.27 115.168Z" fill="#969696"/>
<path d="M220.27 116.78H210.886C210.698 116.78 210.545 116.933 210.545 117.121C210.545 117.31 210.698 117.463 210.886 117.463H220.27C220.459 117.463 220.612 117.31 220.612 117.121C220.612 116.933 220.459 116.78 220.27 116.78Z" fill="#969696"/>
<path d="M220.27 118.392H210.886C210.698 118.392 210.545 118.545 210.545 118.733C210.545 118.922 210.698 119.075 210.886 119.075H220.27C220.459 119.075 220.612 118.922 220.612 118.733C220.612 118.545 220.459 118.392 220.27 118.392Z" fill="#969696"/>
<path d="M242.404 63.9017C242.404 63.7553 242.286 63.6367 242.139 63.6367C241.993 63.6367 241.874 63.7553 241.874 63.9017V76.3027C241.874 76.449 241.993 76.5677 242.139 76.5677C242.286 76.5677 242.404 76.449 242.404 76.3027V63.9017Z" fill="#969696"/>
<path d="M231.255 79.5736H228.983C228.484 79.5736 228.079 79.9783 228.079 80.4775C228.079 80.9768 228.484 81.3815 228.983 81.3815H231.255C231.755 81.3815 232.159 80.9768 232.159 80.4775C232.159 79.9783 231.755 79.5736 231.255 79.5736Z" fill="#D8D8D8"/>
<path d="M259.122 79.5736H256.849C256.35 79.5736 255.945 79.9783 255.945 80.4775C255.945 80.9768 256.35 81.3815 256.849 81.3815H259.122C259.621 81.3815 260.025 80.9768 260.025 80.4775C260.025 79.9783 259.621 79.5736 259.122 79.5736Z" fill="#D8D8D8"/>
<path d="M173.342 81.3415H160.088C157.682 81.3415 155.732 83.2919 155.732 85.6978V92.1633C155.732 94.5693 157.682 96.5197 160.088 96.5197H173.342C175.748 96.5197 177.698 94.5693 177.698 92.1633V85.6978C177.698 83.2919 175.748 81.3415 173.342 81.3415Z" fill="#D8D8D8"/>
<path d="M163.58 83.7847H160.276V94.0765H163.58V83.7847Z" fill="#AB8DE5"/>
<path d="M168.369 90.6314H165.065V94.0802H168.369V90.6314Z" fill="#AB8DE5"/>
<path d="M173.153 87.7272H169.849V94.0765H173.153V87.7272Z" fill="#AB8DE5"/>
<path d="M67.7518 56.1365C65.9261 56.1361 64.1182 56.4952 62.4313 57.1936C60.7444 57.8919 59.2116 58.9157 57.9205 60.2066C56.6293 61.4974 55.6051 63.0299 54.9063 64.7166C54.2076 66.4033 53.8479 68.2111 53.8479 70.0368H81.6558C81.6558 68.2111 81.2961 66.4033 80.5973 64.7166C79.8985 63.0299 78.8743 61.4974 77.5832 60.2066C76.292 58.9157 74.7593 57.8919 73.0724 57.1936C71.3855 56.4952 69.5776 56.1361 67.7518 56.1365Z" fill="#AB8DE5"/>
<path d="M67.7517 51.4317V1" stroke="black" stroke-width="2" stroke-linecap="round" stroke-linejoin="round"/>
<path d="M176.806 209.261C176.806 210.122 176.301 215.549 177.307 216.05C178.312 216.551 189.366 216.856 189.867 216.351C190.368 215.847 190.67 214.794 190.23 214.493C189.791 214.191 185.511 213.338 184.93 212.935C184.349 212.532 183.547 210.394 183.841 209.261" fill="#1F161E"/>
<path d="M143.755 138.315L149.977 136.082C149.709 124.731 147.055 99.3658 143.287 95.594C142.401 94.7118 124.881 93.1726 121.756 93.1726C103.103 93.1726 97.5709 95.2999 96.1659 96.7085C91.8096 101.065 90.4519 121.249 90.4519 128.317C90.4519 135.385 110.418 139.052 110.418 139.052L133.823 140.66C133.823 140.66 138.956 141.19 143.396 141.452C143.494 140.09 143.755 138.315 143.755 138.315Z" fill="#78E5E1"/>
<path d="M162.295 144.897C163.997 144.392 180.929 141.629 184.617 145.26C188.306 148.89 199.915 200.937 199.915 202.135H190.567L177.948 174.977" fill="#1F161E"/>
<path d="M100.649 140.268C100.224 142.392 97.6724 144.672 97.6724 156.241C97.6724 172.24 110.778 172.577 115.482 172.577C130.142 172.577 153.858 168.221 155.459 167.423C156.523 169.201 176.101 209.171 176.192 210.064H185.205C185.205 210.064 179.618 150.266 169.537 143.484C166.263 141.306 108.167 138.976 100.649 140.268Z" fill="#55B79D"/>
<path d="M153.434 128.571C151.067 128.571 149.114 129.134 143.755 130.187L143.476 140.439C148.558 138.391 149.738 135.545 151.212 135.545C154.893 135.545 156.817 137.444 158.992 137.444C160.509 137.444 163.239 136.253 163.239 134.634C163.239 131.243 156.367 128.571 153.434 128.571Z" fill="#F8CDBA"/>
<path d="M191.098 201.416C191.098 202.28 190.593 207.704 191.599 208.209C192.604 208.713 203.659 209.011 204.16 208.51C204.66 208.009 204.962 206.953 204.523 206.651C204.083 206.35 199.803 205.493 199.222 205.09C198.642 204.687 197.839 202.549 198.133 201.416" fill="#1F161E"/>
<path d="M125.056 95.5867C125.056 96.9553 117.109 96.9952 117.109 95.5867V84.4563H125.056V95.5867Z" fill="#F8CDBA"/>
<path d="M122.467 88.1265C121.741 88.1265 117.109 90.174 117.109 91.3175V85.2767C118.264 85.2767 122.467 88.1265 122.467 88.1265Z" fill="#1F161E"/>
<path d="M124.003 88.5984C129.316 88.5984 133.623 84.2913 133.623 78.9782C133.623 73.6651 129.316 69.358 124.003 69.358C118.69 69.358 114.383 73.6651 114.383 78.9782C114.383 84.2913 118.69 88.5984 124.003 88.5984Z" fill="#F8CDBA"/>
<path d="M133.932 71.4272C132.741 73.3186 130.251 74.1862 127.553 74.1862C125.255 74.1862 121.908 73.5183 119.527 74.876C118.238 75.602 116.761 77.2538 116.463 80.561C116.463 81.1273 115.82 83.3236 115.82 84.0315C115.82 84.5144 115.276 84.8302 114.368 84.8302C113.9 84.8302 112.974 84.0715 112.974 82.9134C112.974 81.5738 113.508 81.0983 113.508 79.962C113.508 78.8257 112.117 77.733 112.117 74.5747C112.117 70.0259 115.022 67.2234 117.076 67.2234C118.95 67.2234 119.538 67.659 119.774 67.8442C119.774 63.7093 125.219 61.8215 127.379 61.8215C129.848 61.8215 131.009 62.8344 131.009 64.1231C131.009 66.1779 130.029 67.924 129.532 68.3161C130.658 67.3034 132.12 66.7457 133.634 66.7514C136.462 66.7514 137.413 68.6101 137.413 69.8807C137.413 72.6434 134.099 75.2027 132.864 75.2027C132.554 74.5457 132.19 73.9156 131.775 73.3186" fill="#1F161E"/>
<path d="M116.76 82.2999C117.893 82.2999 118.811 81.3816 118.811 80.2488C118.811 79.116 117.893 78.1977 116.76 78.1977C115.628 78.1977 114.709 79.116 114.709 80.2488C114.709 81.3816 115.628 82.2999 116.76 82.2999Z" fill="#F8CDBA"/>
<path d="M133.717 80.7425C134.595 80.7425 135.307 80.3719 135.307 79.9148C135.307 79.4577 134.595 79.0871 133.717 79.0871C132.839 79.0871 132.127 79.4577 132.127 79.9148C132.127 80.3719 132.839 80.7425 133.717 80.7425Z" fill="#FA9E9F"/>
<path d="M123.716 80.7425C124.594 80.7425 125.306 80.3719 125.306 79.9148C125.306 79.4577 124.594 79.0871 123.716 79.0871C122.838 79.0871 122.126 79.4577 122.126 79.9148C122.126 80.3719 122.838 80.7425 123.716 80.7425Z" fill="#FA9E9F"/>
<path d="M129.833 78.1977C130.131 78.6225 131.648 80.4049 130.047 81.1274" stroke="#1F161E" stroke-miterlimit="10" stroke-linecap="round"/>
<path d="M126.842 83.2075C126.363 83.2075 125.626 82.6121 125.237 82.0785" stroke="#1F161E" stroke-miterlimit="10" stroke-linecap="round"/>
<path d="M139.526 109.044C140.252 110.587 143.755 125.471 143.755 130.187" stroke="#1F161E" stroke-miterlimit="10" stroke-linecap="round"/>
<path d="M90.4519 127.119C90.4519 143.851 90.608 148.705 97.324 148.705C112.803 148.705 136.204 135.999 140.375 135.999C144.06 135.999 145.984 137.901 148.159 137.901C149.673 137.901 152.402 136.707 152.402 135.091C152.402 131.697 145.53 129.025 142.601 129.025C136.005 129.025 109.681 135.385 109.039 135.385C108.396 135.385 107.315 135.106 107.315 134.024C107.315 132.06 108.6 127.522 108.767 127.127L90.4519 127.119Z" fill="#F8CDBA"/>
<path d="M112.633 112.526C112.19 113.8 108.737 126.967 108.338 128.571" stroke="#1F161E" stroke-miterlimit="10" stroke-linecap="round"/>
<path d="M243.7 214.368C243.961 215.361 244.977 215.954 245.97 215.693C246.963 215.432 247.556 214.416 247.295 213.423L228.708 142.726C228.447 141.733 227.431 141.14 226.438 141.401C225.445 141.662 224.852 142.678 225.113 143.671L243.7 214.368Z" fill="#969696"/>
<path d="M224.928 143.674C225.189 142.681 224.596 141.665 223.603 141.404C222.61 141.143 221.594 141.736 221.333 142.729L202.747 213.426C202.486 214.419 203.079 215.435 204.072 215.696C205.064 215.957 206.081 215.364 206.342 214.371L224.928 143.674Z" fill="#969696"/>
<path d="M199.281 143.674C199.542 142.681 198.949 141.665 197.956 141.404C196.963 141.143 195.947 141.736 195.686 142.729L177.1 213.425C176.839 214.418 177.432 215.435 178.425 215.696C179.417 215.957 180.434 215.363 180.695 214.371L199.281 143.674Z" fill="#D8D8D8"/>
<path d="M217.729 213.063C217.986 214.059 219.001 214.658 219.997 214.401C220.992 214.145 221.592 213.13 221.335 212.134L203.06 141.228C202.803 140.232 201.788 139.633 200.792 139.889C199.797 140.146 199.198 141.161 199.454 142.157L217.729 213.063Z" fill="#D8D8D8"/>
<path d="M94.5767 143.676C94.8377 142.683 94.2445 141.666 93.2517 141.405C92.2589 141.144 91.2425 141.738 90.9815 142.73L72.395 213.427C72.134 214.42 72.7272 215.436 73.72 215.697C74.7128 215.958 75.7292 215.365 75.9902 214.372L94.5767 143.676Z" fill="#969696"/>
<path d="M113.032 214.373C113.293 215.365 114.309 215.959 115.302 215.698C116.295 215.437 116.888 214.42 116.627 213.427L98.0403 142.731C97.7792 141.738 96.7628 141.145 95.77 141.406C94.7772 141.667 94.184 142.683 94.445 143.676L113.032 214.373Z" fill="#969696"/>
<path d="M236.37 137.912H56.6103C55.7021 137.912 54.9658 138.648 54.9658 139.557V141.767C54.9658 142.676 55.7021 143.412 56.6103 143.412H236.37C237.279 143.412 238.015 142.676 238.015 141.767V139.557C238.015 138.648 237.279 137.912 236.37 137.912Z" fill="#D8D8D8"/>
<path d="M68.012 143.677C68.273 142.684 67.6798 141.668 66.687 141.407C65.6942 141.146 64.6778 141.739 64.4168 142.732L45.8303 213.428C45.5693 214.421 46.1625 215.437 47.1553 215.698C48.1481 215.959 49.1645 215.366 49.4255 214.373L68.012 143.677Z" fill="#D8D8D8"/>
<path d="M86.4671 214.373C86.7281 215.365 87.7445 215.959 88.7373 215.698C89.7301 215.437 90.3233 214.42 90.0623 213.427L71.4758 142.731C71.2148 141.738 70.1984 141.145 69.2056 141.406C68.2128 141.667 67.6196 142.683 67.8806 143.676L86.4671 214.373Z" fill="#D8D8D8"/>
<path d="M189.544 137.912H155.961L162.045 116.987C162.197 116.482 162.508 116.04 162.932 115.727C163.356 115.413 163.87 115.245 164.397 115.248H192.895C193.269 115.242 193.64 115.324 193.977 115.486C194.314 115.649 194.609 115.888 194.838 116.184C195.066 116.481 195.222 116.827 195.293 117.194C195.364 117.562 195.349 117.941 195.247 118.301L189.544 137.912Z" fill="black"/>
<path d="M176.874 128.633C178.009 128.633 178.929 127.713 178.929 126.578C178.929 125.444 178.009 124.524 176.874 124.524C175.739 124.524 174.819 125.444 174.819 126.578C174.819 127.713 175.739 128.633 176.874 128.633Z" fill="white"/>
<path d="M159.95 136.442H136.386V137.912H159.95V136.442Z" fill="black"/>
</svg>
