<svg width="65" height="65" viewBox="0 0 65 65" fill="none" xmlns="http://www.w3.org/2000/svg">
<path d="M54.8016 9.38525C48.7125 3.26444 40.7968 0 32.0691 0C14.4108 0 0 14.4859 0 32.2363C0 38.3571 1.62375 44.2739 4.87126 49.3746L5.68313 50.5987L2.43563 62.4323L14.6138 59.1679L15.8316 59.78C20.7028 62.6363 26.386 64.2686 32.0691 64.2686C49.7274 64.2686 64.1382 49.7826 64.1382 32.0323C64.1382 23.6671 60.8907 15.5061 54.8016 9.38525Z" fill="#40C351"/>
<path fill-rule="evenodd" clip-rule="evenodd" d="M22.5293 15.914C21.7174 14.2817 21.1085 14.2817 20.2967 14.2817C19.6878 14.2817 19.0788 14.2817 18.4699 14.2817C17.861 14.2817 16.8462 14.4858 15.8313 15.5059C15.0195 16.526 12.3809 18.7703 12.3809 23.667C12.3809 28.5636 15.8313 33.0522 16.2373 33.6643C16.6432 34.2764 22.9353 44.4778 32.6778 48.3543C40.7966 51.6187 42.4203 51.0066 44.2471 50.8026C46.0738 50.5986 49.9302 48.5583 50.7421 46.11C51.554 43.8657 51.554 41.8254 51.351 41.4173C51.148 41.0093 50.5391 40.8053 49.5243 40.1932C48.5094 39.5811 43.8411 37.3368 43.0292 37.1328C42.2174 36.7247 41.4055 36.7247 40.7966 37.5408C40.1877 38.561 38.3609 40.6012 37.752 41.4173C37.1431 42.0294 36.5342 42.2335 35.7223 41.6214C34.7075 41.2133 31.663 40.1932 28.0095 36.7247C25.1679 34.0724 23.1382 31.012 22.7323 29.9918C22.1234 28.9717 22.7323 28.5636 23.1382 27.9516C23.5442 27.5435 24.1531 26.7274 24.559 26.3193C24.965 25.7073 25.1679 25.2992 25.5739 24.6871C25.9798 24.075 25.7768 23.463 25.5739 23.0549C25.1679 22.6469 23.3412 17.9542 22.5293 15.914Z" fill="white"/>
</svg>
